<svg xmlns="http://www.w3.org/2000/svg" width="63" height="56" viewBox="0 0 63 56" fill="none"><path d="M0.224065 26.5198L10.7455 8.16905H31.7862L42.3077 26.5198L31.7862 44.8719H10.7456L0.224065 26.5198Z" fill="#082865" stroke="#00C4FF" stroke-width="0.388767"></path><path d="M0.755131 40.9362L9.1504 26.245H25.9375L34.3328 40.9362L25.9375 55.6285H9.1504L0.755131 40.9362Z" fill="#082865" stroke="#00C4FF" stroke-width="0.388767"></path><path d="M28.4016 24.4552L36.7969 9.76402H53.584L61.9792 24.4552L53.584 39.1475H36.7969L28.4016 24.4552Z" fill="#082865" stroke="#00C4FF" stroke-width="0.388767"></path><path d="M11.3881 18.5451L21.9096 0.194383H42.9502L53.4717 18.5451L42.9502 36.8972H21.9096L11.3881 18.5451Z" fill="#082865" stroke="#00C4FF" stroke-width="0.388767"></path><path d="M24.1477 40.9362L32.543 26.245H49.3301L57.7253 40.9362L49.3301 55.6285H32.543L24.1477 40.9362Z" fill="#082865" stroke="#00C4FF" stroke-width="0.388767"></path><path d="M12.4516 30.773L22.9731 12.4222H44.0137L54.5352 30.773L44.0137 49.1251H22.9731L12.4516 30.773Z" fill="#00C4FF" stroke="#00C4FF" stroke-width="0.388767"></path><path d="M17.3537 24.6225V30.4491H18.6349V28.0417H21.0749V27.0462H18.6349V25.6997H21.4503V24.6225H17.3537Z" fill="#082865"></path><path d="M21.8646 24.6225V30.4491H23.1458V24.6225H21.8646Z" fill="#082865"></path><path d="M23.9449 24.6225V30.4491H25.1445V26.5484H25.1608L27.5844 30.4491H28.8656V24.6225H27.666V28.5314H27.6497L25.2179 24.6225H23.9449Z" fill="#082865"></path><path d="M30.9564 25.6997V30.4491H32.2376V25.6997H33.984V24.6225H29.2101V25.6997H30.9564Z" fill="#082865"></path><path d="M34.3294 24.6225V30.4491H38.7523V29.3719H35.6106V27.9438H38.4341V26.9482H35.6106V25.6997H38.6871V24.6225H34.3294Z" fill="#082865"></path><path d="M43.1789 26.581H44.4193C44.3812 26.2437 44.2887 25.9445 44.1418 25.6834C43.9949 25.4222 43.8072 25.2046 43.5788 25.0305C43.3557 24.851 43.1 24.715 42.8117 24.6225C42.5288 24.53 42.2268 24.4838 41.9059 24.4838C41.4598 24.4838 41.0572 24.5626 40.6981 24.7204C40.3445 24.8782 40.0453 25.0958 39.8005 25.3733C39.5556 25.6507 39.368 25.9771 39.2374 26.3525C39.1068 26.7225 39.0415 27.125 39.0415 27.5603C39.0415 27.9846 39.1068 28.3817 39.2374 28.7517C39.368 29.1162 39.5556 29.4344 39.8005 29.7065C40.0453 29.9785 40.3445 30.1934 40.6981 30.3511C41.0572 30.5035 41.4598 30.5796 41.9059 30.5796C42.2649 30.5796 42.5941 30.5252 42.8933 30.4164C43.1925 30.3076 43.4536 30.1498 43.6767 29.9431C43.8997 29.7364 44.0793 29.4861 44.2153 29.1924C44.3513 28.8986 44.4356 28.5694 44.4682 28.2049H43.2279C43.1789 28.5966 43.0429 28.9122 42.8198 29.1515C42.6022 29.3909 42.2976 29.5106 41.9059 29.5106C41.6175 29.5106 41.3727 29.4562 41.1714 29.3474C40.9701 29.2332 40.8069 29.0835 40.6818 28.8986C40.5567 28.7136 40.4642 28.5069 40.4043 28.2784C40.3499 28.0444 40.3227 27.8051 40.3227 27.5603C40.3227 27.3046 40.3499 27.057 40.4043 26.8177C40.4642 26.5783 40.5567 26.3661 40.6818 26.1811C40.8069 25.9907 40.9701 25.8411 41.1714 25.7323C41.3727 25.6181 41.6175 25.5609 41.9059 25.5609C42.0636 25.5609 42.2132 25.5881 42.3547 25.6426C42.5016 25.6915 42.6321 25.7622 42.7464 25.8547C42.8606 25.9472 42.9558 26.056 43.032 26.1811C43.1082 26.3008 43.1571 26.4341 43.1789 26.581Z" fill="#082865"></path><path d="M45.0167 24.6225V30.4491H46.2979V27.9356H48.6563V30.4491H49.9375V24.6225H48.6563V26.8585H46.2979V24.6225H45.0167Z" fill="#082865"></path><path d="M17.3698 33.1304V32.3516H18.0553C18.1206 32.3516 18.1827 32.3578 18.2418 32.3703C18.304 32.3796 18.3584 32.3982 18.405 32.4262C18.4516 32.4542 18.489 32.4931 18.5169 32.5428C18.5449 32.5925 18.5589 32.6563 18.5589 32.734C18.5589 32.8739 18.5169 32.9749 18.433 33.0371C18.3491 33.0993 18.2418 33.1304 18.1112 33.1304H17.3698ZM16.6377 31.7827V35.1122H18.2511C18.4004 35.1122 18.5449 35.0935 18.6848 35.0562C18.8278 35.0189 18.9537 34.9614 19.0625 34.8837C19.1744 34.806 19.263 34.7065 19.3283 34.5853C19.3936 34.4609 19.4262 34.3148 19.4262 34.1469C19.4262 33.9386 19.3749 33.7614 19.2724 33.6153C19.1729 33.4661 19.0206 33.362 18.8154 33.3029C18.9646 33.2314 19.0765 33.1397 19.1511 33.0278C19.2288 32.9159 19.2677 32.776 19.2677 32.6081C19.2677 32.4527 19.2413 32.3221 19.1884 32.2164C19.1387 32.1107 19.0672 32.0268 18.9739 31.9646C18.8807 31.8993 18.7687 31.8527 18.6382 31.8247C18.5076 31.7967 18.3631 31.7827 18.2045 31.7827H16.6377ZM17.3698 34.5433V33.6293H18.1672C18.3257 33.6293 18.4532 33.6666 18.5496 33.7412C18.6459 33.8127 18.6941 33.934 18.6941 34.105C18.6941 34.192 18.6786 34.2635 18.6475 34.3195C18.6195 34.3754 18.5807 34.4205 18.5309 34.4547C18.4812 34.4858 18.4237 34.5091 18.3584 34.5246C18.2931 34.5371 18.2247 34.5433 18.1532 34.5433H17.3698Z" fill="#082865"></path><path d="M20.4666 33.2889V32.3516H21.2686C21.4365 32.3516 21.5624 32.3889 21.6464 32.4635C21.7303 32.535 21.7723 32.6516 21.7723 32.8133C21.7723 32.9811 21.7303 33.1024 21.6464 33.177C21.5624 33.2516 21.4365 33.2889 21.2686 33.2889H20.4666ZM19.7345 31.7827V35.1122H20.4666V33.8112H21.1987C21.3821 33.8112 21.5142 33.8516 21.5951 33.9324C21.6759 34.0132 21.7287 34.1407 21.7536 34.3148C21.7723 34.4485 21.7863 34.5884 21.7956 34.7345C21.8049 34.8806 21.8298 35.0065 21.8702 35.1122H22.6023C22.5681 35.0656 22.5417 35.0096 22.523 34.9443C22.5075 34.8759 22.495 34.8044 22.4857 34.7298C22.4795 34.6552 22.4748 34.5821 22.4717 34.5106C22.4686 34.4391 22.4655 34.377 22.4624 34.3241C22.4562 34.2402 22.4438 34.1562 22.4251 34.0723C22.4096 33.9884 22.3831 33.9122 22.3458 33.8438C22.3085 33.7723 22.2603 33.7117 22.2013 33.662C22.1422 33.6091 22.0676 33.5702 21.9774 33.5454V33.5361C22.164 33.4614 22.2976 33.3526 22.3785 33.2096C22.4624 33.0666 22.5044 32.8972 22.5044 32.7014C22.5044 32.5739 22.4811 32.4558 22.4344 32.347C22.3909 32.235 22.3256 32.1371 22.2386 32.0532C22.1546 31.9692 22.0521 31.904 21.9308 31.8573C21.8127 31.8076 21.679 31.7827 21.5298 31.7827H19.7345Z" fill="#082865"></path><path d="M22.9132 31.7827V35.1122H25.4406V34.4967H23.6453V33.6806H25.2588V33.1117H23.6453V32.3982H25.4033V31.7827H22.9132Z" fill="#082865"></path><path d="M26.5898 33.8252L27.0235 32.6034H27.0328L27.4525 33.8252H26.5898ZM26.6598 31.7827L25.4007 35.1122H26.1375L26.3986 34.3707H27.6437L27.8955 35.1122H28.6556L27.4105 31.7827H26.6598Z" fill="#082865"></path><path d="M28.7562 31.7827V35.1122H29.4883V34.0397L29.908 33.6153L30.9105 35.1122H31.8292L30.4022 33.0977L31.7033 31.7827H30.7893L29.4883 33.163V31.7827H28.7562Z" fill="#082865"></path><path d="M32.6717 32.3982V35.1122H33.4038V32.3982H34.4017V31.7827H31.6738V32.3982H32.6717Z" fill="#082865"></path><path d="M35.3312 33.2889V32.3516H36.1333C36.3011 32.3516 36.427 32.3889 36.511 32.4635C36.5949 32.535 36.6369 32.6516 36.6369 32.8133C36.6369 32.9811 36.5949 33.1024 36.511 33.177C36.427 33.2516 36.3011 33.2889 36.1333 33.2889H35.3312ZM34.5991 31.7827V35.1122H35.3312V33.8112H36.0633C36.2467 33.8112 36.3789 33.8516 36.4597 33.9324C36.5405 34.0132 36.5934 34.1407 36.6182 34.3148C36.6369 34.4485 36.6509 34.5884 36.6602 34.7345C36.6695 34.8806 36.6944 35.0065 36.7348 35.1122H37.4669C37.4327 35.0656 37.4063 35.0096 37.3876 34.9443C37.3721 34.8759 37.3597 34.8044 37.3503 34.7298C37.3441 34.6552 37.3395 34.5821 37.3363 34.5106C37.3332 34.4391 37.3301 34.377 37.327 34.3241C37.3208 34.2402 37.3084 34.1562 37.2897 34.0723C37.2742 33.9884 37.2477 33.9122 37.2104 33.8438C37.1731 33.7723 37.125 33.7117 37.0659 33.662C37.0068 33.6091 36.9322 33.5702 36.8421 33.5454V33.5361C37.0286 33.4614 37.1623 33.3526 37.2431 33.2096C37.327 33.0666 37.369 32.8972 37.369 32.7014C37.369 32.5739 37.3457 32.4558 37.299 32.347C37.2555 32.235 37.1902 32.1371 37.1032 32.0532C37.0193 31.9692 36.9167 31.904 36.7954 31.8573C36.6773 31.8076 36.5436 31.7827 36.3944 31.7827H34.5991Z" fill="#082865"></path><path d="M38.3654 33.4614C38.3654 33.3153 38.3809 33.1739 38.412 33.0371C38.4462 32.9003 38.4991 32.7791 38.5706 32.6734C38.6421 32.5646 38.7353 32.4791 38.8504 32.4169C38.9654 32.3516 39.1053 32.319 39.27 32.319C39.4348 32.319 39.5747 32.3516 39.6897 32.4169C39.8048 32.4791 39.898 32.5646 39.9695 32.6734C40.041 32.7791 40.0923 32.9003 40.1234 33.0371C40.1576 33.1739 40.1747 33.3153 40.1747 33.4614C40.1747 33.6013 40.1576 33.7381 40.1234 33.8718C40.0923 34.0024 40.041 34.1205 39.9695 34.2262C39.898 34.3319 39.8048 34.4174 39.6897 34.4827C39.5747 34.5448 39.4348 34.5759 39.27 34.5759C39.1053 34.5759 38.9654 34.5448 38.8504 34.4827C38.7353 34.4174 38.6421 34.3319 38.5706 34.2262C38.4991 34.1205 38.4462 34.0024 38.412 33.8718C38.3809 33.7381 38.3654 33.6013 38.3654 33.4614ZM37.6333 33.4614C37.6333 33.7039 37.6706 33.9309 37.7452 34.1423C37.8198 34.3505 37.9271 34.5324 38.067 34.6878C38.2069 34.8433 38.3778 34.9661 38.5799 35.0562C38.7851 35.1433 39.0151 35.1868 39.27 35.1868C39.5281 35.1868 39.7581 35.1433 39.9602 35.0562C40.1623 34.9661 40.3332 34.8433 40.4731 34.6878C40.613 34.5324 40.7203 34.3505 40.7949 34.1423C40.8695 33.9309 40.9068 33.7039 40.9068 33.4614C40.9068 33.2127 40.8695 32.9827 40.7949 32.7713C40.7203 32.5568 40.613 32.3703 40.4731 32.2117C40.3332 32.0532 40.1623 31.9288 39.9602 31.8387C39.7581 31.7485 39.5281 31.7034 39.27 31.7034C39.0151 31.7034 38.7851 31.7485 38.5799 31.8387C38.3778 31.9288 38.2069 32.0532 38.067 32.2117C37.9271 32.3703 37.8198 32.5568 37.7452 32.7713C37.6706 32.9827 37.6333 33.2127 37.6333 33.4614Z" fill="#082865"></path><path d="M44.0466 33.8531V31.7827H43.3145V33.8531C43.3145 34.1018 43.2647 34.2853 43.1652 34.4034C43.0658 34.5184 42.8855 34.5759 42.6243 34.5759C42.4751 34.5759 42.3554 34.5557 42.2653 34.5153C42.1782 34.4718 42.1098 34.4174 42.0601 34.3521C42.0103 34.2837 41.9777 34.206 41.9622 34.1189C41.9466 34.0319 41.9388 33.9433 41.9388 33.8531V31.7827H41.2067V33.8531C41.2067 34.307 41.3295 34.6428 41.5751 34.8604C41.8238 35.078 42.1736 35.1868 42.6243 35.1868C43.0689 35.1868 43.4171 35.078 43.6689 34.8604C43.9207 34.6397 44.0466 34.3039 44.0466 33.8531Z" fill="#082865"></path><path d="M46.8967 34.7345L46.9713 35.1122H47.4377V33.3122H46.0387V33.8578H46.7755C46.7537 34.091 46.676 34.2697 46.5423 34.3941C46.4118 34.5153 46.2252 34.5759 45.9828 34.5759C45.818 34.5759 45.6781 34.5448 45.5631 34.4827C45.4481 34.4174 45.3548 34.3319 45.2833 34.2262C45.2118 34.1205 45.1589 34.0024 45.1247 33.8718C45.0937 33.7381 45.0781 33.6013 45.0781 33.4614C45.0781 33.3153 45.0937 33.1739 45.1247 33.0371C45.1589 32.9003 45.2118 32.7791 45.2833 32.6734C45.3548 32.5646 45.4481 32.4791 45.5631 32.4169C45.6781 32.3516 45.818 32.319 45.9828 32.319C46.16 32.319 46.3107 32.3656 46.4351 32.4589C46.5594 32.5521 46.6434 32.692 46.6869 32.8785H47.3864C47.3677 32.6889 47.3164 32.521 47.2325 32.3749C47.1485 32.2288 47.0413 32.106 46.9107 32.0065C46.7833 31.9071 46.6387 31.8325 46.477 31.7827C46.3185 31.7299 46.1537 31.7034 45.9828 31.7034C45.7278 31.7034 45.4978 31.7485 45.2926 31.8387C45.0905 31.9288 44.9196 32.0532 44.7797 32.2117C44.6398 32.3703 44.5325 32.5568 44.4579 32.7713C44.3833 32.9827 44.346 33.2127 44.346 33.4614C44.346 33.7039 44.3833 33.9309 44.4579 34.1423C44.5325 34.3505 44.6398 34.5324 44.7797 34.6878C44.9196 34.8433 45.0905 34.9661 45.2926 35.0562C45.4978 35.1433 45.7278 35.1868 45.9828 35.1868C46.1444 35.1868 46.3045 35.1542 46.4631 35.0889C46.6216 35.0205 46.7662 34.9023 46.8967 34.7345Z" fill="#082865"></path><path d="M47.8424 31.7827V35.1122H48.5745V33.6759H49.9221V35.1122H50.6542V31.7827H49.9221V33.0604H48.5745V31.7827H47.8424Z" fill="#082865"></path><path d="M26.4896 38.4883L26.9233 37.2665H26.9326L27.3523 38.4883H26.4896ZM26.5596 36.4458L25.3005 39.7753H26.0373L26.2984 39.0339H27.5435L27.7953 39.7753H28.5554L27.3103 36.4458H26.5596Z" fill="#082865"></path><path d="M31.7131 39.7753L32.6084 36.4458H31.8903L31.3447 38.7401H31.3353L30.7664 36.4458H30.081L29.5027 38.7121H29.4934L28.9665 36.4458H28.2344L29.1157 39.7753H29.8571L30.412 37.509H30.4214L30.9856 39.7753H31.7131Z" fill="#082865"></path><path d="M33.4847 38.4883L33.9184 37.2665H33.9277L34.3474 38.4883H33.4847ZM33.5546 36.4458L32.2956 39.7753H33.0324L33.2935 39.0339H34.5385L34.7904 39.7753H35.5504L34.3054 36.4458H33.5546Z" fill="#082865"></path><path d="M36.3831 37.952V37.0147H37.1852C37.3531 37.0147 37.479 37.052 37.5629 37.1267C37.6468 37.1982 37.6888 37.3147 37.6888 37.4764C37.6888 37.6443 37.6468 37.7655 37.5629 37.8401C37.479 37.9147 37.3531 37.952 37.1852 37.952H36.3831ZM35.651 36.4458V39.7753H36.3831V38.4743H37.1152C37.2987 38.4743 37.4308 38.5147 37.5116 38.5955C37.5924 38.6764 37.6453 38.8038 37.6702 38.9779C37.6888 39.1116 37.7028 39.2515 37.7121 39.3976C37.7215 39.5437 37.7463 39.6696 37.7867 39.7753H38.5188C38.4847 39.7287 38.4582 39.6727 38.4396 39.6074C38.424 39.539 38.4116 39.4675 38.4023 39.3929C38.3961 39.3183 38.3914 39.2453 38.3883 39.1738C38.3852 39.1023 38.3821 39.0401 38.379 38.9872C38.3727 38.9033 38.3603 38.8194 38.3416 38.7354C38.3261 38.6515 38.2997 38.5753 38.2624 38.5069C38.2251 38.4354 38.1769 38.3748 38.1178 38.3251C38.0588 38.2722 37.9841 38.2334 37.894 38.2085V38.1992C38.0805 38.1246 38.2142 38.0158 38.295 37.8728C38.379 37.7298 38.4209 37.5603 38.4209 37.3645C38.4209 37.237 38.3976 37.1189 38.351 37.0101C38.3075 36.8982 38.2422 36.8002 38.1551 36.7163C38.0712 36.6324 37.9686 36.5671 37.8474 36.5204C37.7292 36.4707 37.5955 36.4458 37.4463 36.4458H35.651Z" fill="#082865"></path><path d="M39.5619 39.1598V37.0614H40.0842C40.2645 37.0614 40.4152 37.0878 40.5365 37.1406C40.6608 37.1904 40.7603 37.2634 40.8349 37.3598C40.9095 37.4562 40.9624 37.5728 40.9935 37.7095C41.0277 37.8432 41.0448 37.994 41.0448 38.1619C41.0448 38.3453 41.0215 38.5007 40.9748 38.6282C40.9282 38.7556 40.866 38.8598 40.7883 38.9406C40.7106 39.0183 40.622 39.0743 40.5225 39.1085C40.423 39.1427 40.3204 39.1598 40.2147 39.1598H39.5619ZM38.8298 36.4458V39.7753H40.266C40.5209 39.7753 40.7417 39.7333 40.9282 39.6494C41.1178 39.5624 41.2748 39.4442 41.3992 39.295C41.5266 39.1458 41.6214 38.9686 41.6836 38.7634C41.7458 38.5582 41.7769 38.3344 41.7769 38.0919C41.7769 37.8152 41.738 37.5743 41.6603 37.3691C41.5857 37.164 41.48 36.993 41.3432 36.8562C41.2095 36.7194 41.0494 36.6168 40.8629 36.5484C40.6795 36.48 40.4805 36.4458 40.266 36.4458H38.8298Z" fill="#082865"></path><path d="M27.9913 42.7414H28.6648C28.6648 42.649 28.6731 42.5565 28.6896 42.4641C28.7094 42.3683 28.7408 42.2825 28.7837 42.2066C28.8266 42.1273 28.8827 42.0646 28.952 42.0184C29.0247 41.9689 29.1122 41.9441 29.2145 41.9441C29.3664 41.9441 29.4902 41.992 29.5859 42.0877C29.6849 42.1802 29.7345 42.3106 29.7345 42.4789C29.7345 42.5846 29.7097 42.6787 29.6602 42.7612C29.614 42.8437 29.5545 42.918 29.4819 42.984C29.4126 43.0501 29.335 43.1112 29.2492 43.1673C29.1633 43.2201 29.0824 43.2729 29.0065 43.3257C28.858 43.4281 28.716 43.5288 28.5806 43.6278C28.4486 43.7269 28.333 43.8358 28.234 43.9547C28.135 44.0702 28.0557 44.2023 27.9963 44.3508C27.9402 44.4994 27.9121 44.6744 27.9121 44.8757H30.4575V44.2716H28.8183C28.9042 44.1527 29.0032 44.0487 29.1155 43.9596C29.2277 43.8705 29.3433 43.7879 29.4621 43.712C29.581 43.6328 29.6982 43.5535 29.8137 43.4743C29.9325 43.3951 30.0382 43.3076 30.1306 43.2118C30.2231 43.1128 30.2973 43.0006 30.3535 42.8751C30.4096 42.7497 30.4377 42.5994 30.4377 42.4245C30.4377 42.2561 30.4046 42.1042 30.3386 41.9689C30.2759 41.8335 30.1901 41.7196 30.0811 41.6272C29.9722 41.5347 29.8451 41.4638 29.6998 41.4142C29.5578 41.3647 29.4076 41.34 29.2492 41.34C29.0412 41.34 28.8563 41.3763 28.6945 41.4489C28.5361 41.5182 28.404 41.6173 28.2984 41.746C28.1927 41.8715 28.1135 42.02 28.0607 42.1917C28.0078 42.3601 27.9847 42.5433 27.9913 42.7414Z" fill="#082865"></path><path d="M31.1689 43.1277C31.1689 43.0682 31.1689 42.9973 31.1689 42.9147C31.1722 42.8289 31.1788 42.7414 31.1887 42.6523C31.1986 42.5631 31.2151 42.4756 31.2382 42.3898C31.2613 42.3007 31.2927 42.2214 31.3323 42.1521C31.3752 42.0828 31.4281 42.0267 31.4908 41.9837C31.5568 41.9408 31.6377 41.9194 31.7334 41.9194C31.8292 41.9194 31.9101 41.9408 31.9761 41.9837C32.0421 42.0267 32.0966 42.0828 32.1395 42.1521C32.1824 42.2214 32.2138 42.3007 32.2336 42.3898C32.2567 42.4756 32.2732 42.5631 32.2831 42.6523C32.2963 42.7414 32.3029 42.8289 32.3029 42.9147C32.3062 42.9973 32.3079 43.0682 32.3079 43.1277C32.3079 43.2267 32.3046 43.3472 32.298 43.4892C32.2914 43.6278 32.2699 43.7632 32.2336 43.8952C32.2006 44.024 32.1445 44.1346 32.0652 44.227C31.9893 44.3195 31.8787 44.3657 31.7334 44.3657C31.5915 44.3657 31.4825 44.3195 31.4066 44.227C31.3307 44.1346 31.2745 44.024 31.2382 43.8952C31.2052 43.7632 31.1854 43.6278 31.1788 43.4892C31.1722 43.3472 31.1689 43.2267 31.1689 43.1277ZM30.4657 43.1277C30.4657 43.4743 30.4987 43.7648 30.5647 43.9992C30.6341 44.2303 30.7265 44.4152 30.8421 44.5539C30.9576 44.6925 31.0913 44.7916 31.2432 44.851C31.3983 44.9104 31.5618 44.9401 31.7334 44.9401C31.9084 44.9401 32.0718 44.9104 32.2237 44.851C32.3789 44.7916 32.5142 44.6925 32.6298 44.5539C32.7486 44.4152 32.841 44.2303 32.9071 43.9992C32.9764 43.7648 33.0111 43.4743 33.0111 43.1277C33.0111 42.7909 32.9764 42.5087 32.9071 42.2809C32.841 42.0498 32.7486 41.8649 32.6298 41.7262C32.5142 41.5876 32.3789 41.4885 32.2237 41.4291C32.0718 41.3697 31.9084 41.34 31.7334 41.34C31.5618 41.34 31.3983 41.3697 31.2432 41.4291C31.0913 41.4885 30.9576 41.5876 30.8421 41.7262C30.7265 41.8649 30.6341 42.0498 30.5647 42.2809C30.4987 42.5087 30.4657 42.7909 30.4657 43.1277Z" fill="#082865"></path><path d="M33.0985 42.7414H33.772C33.772 42.649 33.7803 42.5565 33.7968 42.4641C33.8166 42.3683 33.8479 42.2825 33.8909 42.2066C33.9338 42.1273 33.9899 42.0646 34.0592 42.0184C34.1319 41.9689 34.2194 41.9441 34.3217 41.9441C34.4736 41.9441 34.5974 41.992 34.6931 42.0877C34.7921 42.1802 34.8417 42.3106 34.8417 42.4789C34.8417 42.5846 34.8169 42.6787 34.7674 42.7612C34.7212 42.8437 34.6617 42.918 34.5891 42.984C34.5198 43.0501 34.4422 43.1112 34.3564 43.1673C34.2705 43.2201 34.1896 43.2729 34.1137 43.3257C33.9651 43.4281 33.8232 43.5288 33.6878 43.6278C33.5558 43.7269 33.4402 43.8358 33.3412 43.9547C33.2421 44.0702 33.1629 44.2023 33.1035 44.3508C33.0474 44.4994 33.0193 44.6744 33.0193 44.8757H35.5647V44.2716H33.9255C34.0114 44.1527 34.1104 44.0487 34.2227 43.9596C34.3349 43.8705 34.4504 43.7879 34.5693 43.712C34.6881 43.6328 34.8053 43.5535 34.9209 43.4743C35.0397 43.3951 35.1454 43.3076 35.2378 43.2118C35.3303 43.1128 35.4045 43.0006 35.4607 42.8751C35.5168 42.7497 35.5449 42.5994 35.5449 42.4245C35.5449 42.2561 35.5118 42.1042 35.4458 41.9689C35.3831 41.8335 35.2973 41.7196 35.1883 41.6272C35.0794 41.5347 34.9523 41.4638 34.807 41.4142C34.665 41.3647 34.5148 41.34 34.3564 41.34C34.1484 41.34 33.9635 41.3763 33.8017 41.4489C33.6433 41.5182 33.5112 41.6173 33.4056 41.746C33.2999 41.8715 33.2207 42.02 33.1679 42.1917C33.115 42.3601 33.0919 42.5433 33.0985 42.7414Z" fill="#082865"></path><path d="M35.6521 42.7414H36.3256C36.3256 42.649 36.3339 42.5565 36.3504 42.4641C36.3702 42.3683 36.4015 42.2825 36.4445 42.2066C36.4874 42.1273 36.5435 42.0646 36.6128 42.0184C36.6855 41.9689 36.7729 41.9441 36.8753 41.9441C37.0272 41.9441 37.151 41.992 37.2467 42.0877C37.3457 42.1802 37.3953 42.3106 37.3953 42.4789C37.3953 42.5846 37.3705 42.6787 37.321 42.7612C37.2748 42.8437 37.2153 42.918 37.1427 42.984C37.0734 43.0501 36.9958 43.1112 36.91 43.1673C36.8241 43.2201 36.7432 43.2729 36.6673 43.3257C36.5187 43.4281 36.3768 43.5288 36.2414 43.6278C36.1094 43.7269 35.9938 43.8358 35.8948 43.9547C35.7957 44.0702 35.7165 44.2023 35.6571 44.3508C35.601 44.4994 35.5729 44.6744 35.5729 44.8757H38.1183V44.2716H36.4791C36.565 44.1527 36.664 44.0487 36.7762 43.9596C36.8885 43.8705 37.004 43.7879 37.1229 43.712C37.2417 43.6328 37.3589 43.5535 37.4745 43.4743C37.5933 43.3951 37.699 43.3076 37.7914 43.2118C37.8839 43.1128 37.9581 43.0006 38.0143 42.8751C38.0704 42.7497 38.0984 42.5994 38.0984 42.4245C38.0984 42.2561 38.0654 42.1042 37.9994 41.9689C37.9367 41.8335 37.8508 41.7196 37.7419 41.6272C37.633 41.5347 37.5059 41.4638 37.3606 41.4142C37.2186 41.3647 37.0684 41.34 36.91 41.34C36.702 41.34 36.5171 41.3763 36.3553 41.4489C36.1969 41.5182 36.0648 41.6173 35.9592 41.746C35.8535 41.8715 35.7743 42.02 35.7215 42.1917C35.6686 42.3601 35.6455 42.5433 35.6521 42.7414Z" fill="#082865"></path><rect x="16.7422" y="25.6985" width="2.91445" height="1.34065" fill="#00C4FF"></rect><rect x="16.1592" y="33.655" width="1.74867" height="0.874335" fill="#00C4FF"></rect><rect x="34.2285" y="32.3434" width="1.74867" height="0.932624" fill="#00C4FF"></rect><rect x="19.6562" y="32.3434" width="1.16578" height="0.967598" fill="#00C4FF"></rect><rect x="22.5713" y="33.7132" width="1.74867" height="0.775244" fill="#00C4FF"></rect><rect x="33.6465" y="27.9717" width="2.91445" height="1.39894" fill="#00C4FF"></rect></svg>